<svg height="800" width="800" xmlns="http://www.w3.org/2000/svg" viewBox="0 0 25.726 25.726" xml:space="preserve"><circle style="fill:#030104" cx="3.35" cy="2.813" r="2.813"/><path style="fill:#030104" d="m5.018 11.613 9.561 9.56a9.75 9.75 0 0 1-3.461-.667c-.445-.084-2.235-.374-2.918.309-1.563 1.563-2.991 3.697-3.773 4.479-.781.781-1.89.456-2.938-.592-1.049-1.049-1.35-2.18-.592-2.938s2.916-2.209 4.48-3.773c.716-.717.344-2.699.287-2.979a9.767 9.767 0 0 1-.646-3.399zm17.39-7.831C17.759-.868 11.649.759 7.845 4.564a9.673 9.673 0 0 0-2.659 4.952l11.485 11.486a9.678 9.678 0 0 0 4.953-2.656c3.806-3.806 5.436-9.913.784-14.564z"/></svg>