<svg height="800" width="800" xmlns="http://www.w3.org/2000/svg" viewBox="0 0 58 58" xml:space="preserve"><path d="M29 0C13.01 0 0 13.009 0 29s13.01 29 29 29 29-13.009 29-29S44.99 0 29 0zm27 29a27.03 27.03 0 0 1-.492 5.115c-2.68-11.081-6.982-18.874-17.726-24.449.671-.817 1.375-1.647 2.118-2.52.549-.645 1.121-1.319 1.703-2.015C50.157 9.667 56 18.662 56 29zM8.168 46.158a27.032 27.032 0 0 1-4.403-7.569c4.645 1.993 8.561 3.001 12.669 3.001 4.88 0 10.052-1.436 17.024-4.311a44.7 44.7 0 0 1 3.204 7.184C24.248 49.4 18.779 48.87 8.168 46.158zm7.858-14.151c4.546 0 8.78-.619 12.6-1.84l.117.156a45.47 45.47 0 0 1 3.715 5.202c-13.703 5.609-19.664 5.053-29.526.499a26.853 26.853 0 0 1-.9-5.749c4.884 1.15 9.584 1.732 13.994 1.732zm14.288-2.921-.275-.367c.404-3.853 1.07-6.867 1.975-9.407C42.76 26.641 47.391 35.536 47.37 48.763a27.123 27.123 0 0 1-6.583 4.524c-1.246-9.165-4.77-17.314-10.473-24.201zm-2.232-.844c-2.821.909-5.889 1.467-9.158 1.671 1.57-13.933 5.712-18.927 12.457-27.053l.576-.695c2.739.3 5.354 1.011 7.786 2.07-.465.553-.923 1.093-1.367 1.614-5.216 6.126-9.006 10.601-10.294 22.393zm1.404-26.23C22.892 9.96 18.491 15.494 16.905 29.993a52.805 52.805 0 0 1-6.972-.351c1.484-13.674 4.794-17.652 11.244-25.388l1.186-1.427A26.997 26.997 0 0 1 29 2c.163 0 .323.009.486.012zM18.77 4.019C12.824 11.177 9.436 15.787 7.95 29.38a66.978 66.978 0 0 1-5.93-1.164c.314-10.93 7.15-20.251 16.75-24.197zm-8.057 44.823c3.717.866 6.88 1.388 10.099 1.388 4.695 0 9.546-1.121 16.441-3.853a48.815 48.815 0 0 1 1.61 7.748A26.813 26.813 0 0 1 29 56c-7.049 0-13.473-2.718-18.287-7.158zm38.629-2.118c-.447-13.008-5.515-21.912-16.576-29.321 1.023-2.304 2.28-4.234 3.747-6.144C47.99 17.091 51.819 25.613 54.374 38.23a27.022 27.022 0 0 1-5.032 8.494z"/></svg>